<?xml version="1.0" encoding="utf-8"?>
<!-- Generator: Adobe Illustrator 15.0.0, SVG Export Plug-In  -->
<!DOCTYPE svg PUBLIC "-//W3C//DTD SVG 1.1//EN" "http://www.w3.org/Graphics/SVG/1.1/DTD/svg11.dtd" [
	<!ENTITY ns_flows "http://ns.adobe.com/Flows/1.0/">
]>
<svg version="1.1"
	 xmlns="http://www.w3.org/2000/svg" xmlns:xlink="http://www.w3.org/1999/xlink" xmlns:a="http://ns.adobe.com/AdobeSVGViewerExtensions/3.0/"
	 x="0px" y="0px" width="560px" height="98px" viewBox="0 -0.173 560 98"
	 overflow="visible" enable-background="new 0 -0.173 560 98" xml:space="preserve">
<defs>
</defs>
<g>
	<defs>
		<rect id="SVGID_1_" y="0.001" width="560" height="97.651"/>
	</defs>
	<clipPath id="SVGID_2_">
		<use xlink:href="#SVGID_1_"  overflow="visible"/>
	</clipPath>
	<path clip-path="url(#SVGID_2_)" d="M394.938,0.626c0-0.179,0.128-0.297,0.315-0.297h3.735c0.252,0,0.409,0.087,0.503,0.297
		l5.4,11.573h0.124l5.306-11.573c0.095-0.21,0.25-0.297,0.502-0.297h3.677c0.188,0,0.315,0.118,0.315,0.297v19.687
		c0,0.178-0.128,0.297-0.315,0.297h-3.551c-0.186,0-0.313-0.12-0.313-0.297V8.888h-0.124l-3.954,8.56
		c-0.126,0.267-0.313,0.387-0.598,0.387h-2.167c-0.281,0-0.471-0.12-0.595-0.387l-3.958-8.56h-0.129v11.425
		c0,0.178-0.123,0.297-0.311,0.297h-3.548c-0.188,0-0.315-0.12-0.315-0.297V0.626z"/>
	<path clip-path="url(#SVGID_2_)" d="M418.807,0.626c0-0.179,0.126-0.297,0.314-0.297h3.986c0.186,0,0.313,0.118,0.313,0.297v19.687
		c0,0.178-0.128,0.297-0.313,0.297h-3.986c-0.188,0-0.314-0.12-0.314-0.297V0.626z"/>
	<path clip-path="url(#SVGID_2_)" d="M432.12,20.61c-0.186,0-0.313-0.12-0.313-0.296v-15.9c0-0.118-0.063-0.178-0.186-0.178h-5.402
		c-0.188,0-0.313-0.122-0.313-0.299V0.626c0-0.178,0.126-0.297,0.313-0.297h15.794c0.186,0,0.313,0.119,0.313,0.297v3.311
		c0,0.177-0.128,0.299-0.313,0.299h-5.402c-0.124,0-0.188,0.06-0.188,0.178v15.9c0,0.177-0.126,0.296-0.312,0.296H432.12z"/>
	<path clip-path="url(#SVGID_2_)" d="M443.589,18.164c-0.126-0.12-0.19-0.329-0.034-0.507l2.387-2.596
		c0.128-0.149,0.315-0.149,0.471-0.03c1.416,1.072,3.332,2.091,5.588,2.091c2.231,0,3.487-0.985,3.487-2.42
		c0-1.193-0.753-1.939-3.295-2.261l-1.131-0.151c-4.334-0.568-6.748-2.507-6.748-6.085c0-3.726,2.945-6.204,7.563-6.204
		c2.823,0,5.466,0.804,7.253,2.118c0.187,0.116,0.218,0.239,0.066,0.448l-1.919,2.714c-0.124,0.148-0.284,0.178-0.438,0.09
		c-1.638-1.014-3.206-1.555-4.963-1.555c-1.884,0-2.856,0.928-2.856,2.208c0,1.166,0.879,1.911,3.329,2.239l1.129,0.149
		c4.397,0.564,6.721,2.474,6.721,6.143c0,3.671-2.856,6.382-8.383,6.382C448.487,20.937,445.254,19.686,443.589,18.164"/>
	<path clip-path="url(#SVGID_2_)" d="M463.072,13.154V0.625c0-0.179,0.127-0.297,0.313-0.297h3.988c0.188,0,0.313,0.118,0.313,0.297
		v12.648c0,2.415,1.412,3.787,3.583,3.787c2.131,0,3.545-1.372,3.545-3.787V0.625c0-0.179,0.126-0.297,0.312-0.297h3.99
		c0.186,0,0.313,0.118,0.313,0.297v12.529c0,5.041-3.389,7.782-8.16,7.782C466.463,20.936,463.072,18.195,463.072,13.154"/>
	<path clip-path="url(#SVGID_2_)" d="M483.318,0.626c0-0.179,0.126-0.297,0.315-0.297h8.318c4.644,0,6.812,2.179,6.812,5.397
		c0,2.207-1.071,3.579-2.482,4.326v0.059c1.411,0.508,2.86,2.177,2.86,4.591c0,3.999-2.795,5.909-7.408,5.909h-8.101
		c-0.189,0-0.315-0.12-0.315-0.297V0.626z M491.388,8.621c1.757,0,2.794-0.896,2.794-2.385c0-1.492-1.037-2.356-2.794-2.356h-3.266
		c-0.126,0-0.188,0.06-0.188,0.175v4.387c0,0.118,0.062,0.179,0.188,0.179H491.388z M488.122,17.061h3.517
		c1.882,0,2.888-0.957,2.888-2.538c0-1.547-1.006-2.534-2.888-2.534h-3.517c-0.126,0-0.188,0.063-0.188,0.181v4.713
		C487.934,17,487.996,17.061,488.122,17.061"/>
	<path clip-path="url(#SVGID_2_)" d="M502.354,0.626c0-0.179,0.128-0.297,0.311-0.297h3.989c0.189,0,0.313,0.118,0.313,0.297v19.687
		c0,0.178-0.124,0.297-0.313,0.297h-3.989c-0.183,0-0.311-0.12-0.311-0.297V0.626z"/>
	<path clip-path="url(#SVGID_2_)" d="M509.896,18.164c-0.126-0.12-0.186-0.329-0.031-0.507l2.388-2.596
		c0.126-0.149,0.312-0.149,0.47-0.03c1.414,1.072,3.327,2.091,5.588,2.091c2.229,0,3.483-0.985,3.483-2.42
		c0-1.193-0.753-1.939-3.294-2.261l-1.13-0.151c-4.336-0.568-6.748-2.507-6.748-6.085c0-3.726,2.949-6.204,7.562-6.204
		c2.826,0,5.465,0.804,7.258,2.118c0.184,0.116,0.216,0.239,0.059,0.448l-1.916,2.714c-0.126,0.148-0.281,0.178-0.437,0.09
		c-1.637-1.014-3.206-1.555-4.964-1.555c-1.883,0-2.855,0.928-2.855,2.208c0,1.166,0.877,1.911,3.327,2.239l1.13,0.149
		c4.396,0.564,6.719,2.474,6.719,6.143c0,3.671-2.855,6.382-8.384,6.382C514.795,20.937,511.56,19.686,509.896,18.164"/>
	<path clip-path="url(#SVGID_2_)" d="M529.426,0.626c0-0.179,0.126-0.297,0.312-0.297h3.99c0.188,0,0.313,0.118,0.313,0.297V8.23
		c0,0.121,0.061,0.181,0.188,0.181h6.971c0.124,0,0.188-0.061,0.188-0.181V0.626c0-0.179,0.126-0.297,0.315-0.297h3.984
		c0.19,0,0.313,0.118,0.313,0.297v19.687c0,0.178-0.123,0.297-0.313,0.297h-3.984c-0.189,0-0.315-0.12-0.315-0.297v-7.815
		c0-0.121-0.063-0.181-0.188-0.181h-6.971c-0.127,0-0.188,0.06-0.188,0.181v7.815c0,0.178-0.125,0.297-0.313,0.297h-3.99
		c-0.186,0-0.312-0.12-0.312-0.297V0.626z"/>
	<path clip-path="url(#SVGID_2_)" d="M549.991,0.626c0-0.179,0.128-0.297,0.317-0.297h3.986c0.189,0,0.313,0.118,0.313,0.297v19.687
		c0,0.178-0.124,0.297-0.313,0.297h-3.986c-0.189,0-0.317-0.12-0.317-0.297V0.626z"/>
	<path clip-path="url(#SVGID_2_)" d="M394.938,26.197c0-0.181,0.128-0.299,0.315-0.299h3.987c0.186,0,0.313,0.118,0.313,0.299v7.605
		c0,0.12,0.062,0.181,0.189,0.181h6.97c0.126,0,0.188-0.061,0.188-0.181v-7.605c0-0.181,0.123-0.299,0.313-0.299h3.988
		c0.188,0,0.312,0.118,0.312,0.299V45.88c0,0.182-0.124,0.301-0.312,0.301h-3.988c-0.19,0-0.313-0.119-0.313-0.301v-7.812
		c0-0.12-0.062-0.181-0.188-0.181h-6.97c-0.128,0-0.189,0.061-0.189,0.181v7.812c0,0.182-0.128,0.301-0.313,0.301h-3.987
		c-0.188,0-0.315-0.119-0.315-0.301V26.197z"/>
	<path clip-path="url(#SVGID_2_)" d="M415.508,26.197c0-0.181,0.128-0.299,0.312-0.299h13.69c0.189,0,0.313,0.118,0.313,0.299v3.191
		c0,0.181-0.124,0.298-0.313,0.298h-9.194c-0.13,0-0.19,0.06-0.19,0.178v4.027c0,0.121,0.061,0.178,0.19,0.178h7.659
		c0.186,0,0.311,0.123,0.311,0.299v3.164c0,0.179-0.125,0.297-0.311,0.297h-7.659c-0.13,0-0.19,0.06-0.19,0.179v4.206
		c0,0.12,0.061,0.179,0.19,0.179h9.194c0.189,0,0.313,0.12,0.313,0.299v3.189c0,0.182-0.124,0.301-0.313,0.301h-13.69
		c-0.184,0-0.312-0.119-0.312-0.301V26.197z"/>
	<path clip-path="url(#SVGID_2_)" d="M439.195,26.196c0.062-0.179,0.185-0.299,0.405-0.299h3.958c0.222,0,0.342,0.12,0.409,0.299
		l7.22,19.685c0.064,0.18,0,0.299-0.22,0.299h-4.084c-0.22,0-0.342-0.088-0.403-0.299l-1.227-3.549h-7.474l-1.191,3.549
		c-0.064,0.211-0.19,0.299-0.407,0.299h-4.115c-0.219,0-0.279-0.119-0.219-0.299L439.195,26.196z M443.998,38.603l-2.417-7.099
		h-0.094l-2.421,7.099H443.998z"/>
	<path clip-path="url(#SVGID_2_)" d="M456.725,46.181c-0.222,0-0.348-0.119-0.412-0.301l-6.78-19.655
		c-0.063-0.208,0.064-0.327,0.286-0.327h4.082c0.218,0,0.346,0.093,0.407,0.299l4.267,13.303h0.094l4.146-13.303
		c0.062-0.207,0.19-0.299,0.407-0.299h4.055c0.188,0,0.308,0.119,0.248,0.327l-6.781,19.655c-0.065,0.182-0.189,0.301-0.377,0.301
		H456.725z"/>
	<path clip-path="url(#SVGID_2_)" d="M475.602,46.181c-0.189,0-0.315-0.119-0.315-0.301v-7.783l-6.311-11.9
		c-0.064-0.151,0-0.299,0.222-0.299h4.082c0.218,0,0.373,0.093,0.467,0.299l3.863,7.395h0.094l3.864-7.395
		c0.092-0.207,0.248-0.299,0.468-0.299h3.956c0.218,0,0.315,0.148,0.218,0.299l-6.31,11.9v7.783c0,0.182-0.126,0.301-0.313,0.301
		H475.602z"/>
	<path clip-path="url(#SVGID_2_)" d="M394.938,51.767c0-0.18,0.128-0.298,0.315-0.298h3.987c0.186,0,0.313,0.118,0.313,0.298v19.688
		c0,0.177-0.128,0.299-0.313,0.299h-3.987c-0.188,0-0.315-0.122-0.315-0.299V51.767z"/>
	<path clip-path="url(#SVGID_2_)" d="M403.496,51.767c0-0.18,0.128-0.298,0.313-0.298h3.769c0.22,0,0.407,0.089,0.535,0.298
		l7.537,12.765h0.153V51.767c0-0.18,0.126-0.298,0.313-0.298h3.547c0.19,0,0.314,0.118,0.314,0.298v19.688
		c0,0.177-0.124,0.299-0.314,0.299h-3.734c-0.249,0-0.407-0.094-0.531-0.299l-7.569-12.735h-0.157v12.735
		c0,0.177-0.124,0.299-0.312,0.299h-3.551c-0.186,0-0.313-0.122-0.313-0.299V51.767z"/>
	<path clip-path="url(#SVGID_2_)" d="M423.971,51.766c0-0.179,0.128-0.297,0.315-0.297h7.94c3.739,0,6.342,1.521,7.378,4.562
		c0.375,1.136,0.565,2.269,0.565,5.577c0,3.313-0.19,4.444-0.565,5.581c-1.036,3.041-3.639,4.562-7.378,4.562h-7.94
		c-0.188,0-0.315-0.119-0.315-0.299V51.766z M428.773,67.842h2.419c2.135,0,3.421-0.594,3.954-2.238
		c0.222-0.593,0.348-1.369,0.348-3.996c0-2.624-0.126-3.4-0.348-3.995c-0.533-1.641-1.819-2.239-3.954-2.239h-2.419
		c-0.127,0-0.186,0.06-0.186,0.183v12.108C428.588,67.784,428.646,67.842,428.773,67.842"/>
	<path clip-path="url(#SVGID_2_)" d="M443.319,64.295V51.767c0-0.18,0.126-0.299,0.314-0.299h3.988c0.186,0,0.315,0.119,0.315,0.299
		v12.645c0,2.419,1.41,3.791,3.578,3.791c2.134,0,3.548-1.372,3.548-3.791V51.767c0-0.18,0.126-0.299,0.312-0.299h3.987
		c0.188,0,0.314,0.119,0.314,0.299v12.528c0,5.039-3.39,7.78-8.161,7.78C446.709,72.076,443.319,69.334,443.319,64.295"/>
	<path clip-path="url(#SVGID_2_)" d="M462.174,69.305c-0.128-0.12-0.191-0.326-0.036-0.508l2.391-2.596
		c0.124-0.151,0.313-0.151,0.47-0.027c1.412,1.074,3.327,2.086,5.588,2.086c2.227,0,3.484-0.985,3.484-2.417
		c0-1.194-0.752-1.937-3.293-2.267l-1.132-0.147c-4.334-0.565-6.753-2.507-6.753-6.085c0-3.729,2.956-6.203,7.569-6.203
		c2.822,0,5.462,0.805,7.252,2.118c0.189,0.118,0.22,0.237,0.062,0.448l-1.911,2.713c-0.13,0.147-0.285,0.179-0.443,0.086
		c-1.634-1.01-3.197-1.549-4.959-1.549c-1.885,0-2.857,0.926-2.857,2.207c0,1.163,0.88,1.911,3.325,2.239l1.134,0.147
		c4.396,0.567,6.719,2.475,6.719,6.146c0,3.669-2.858,6.38-8.384,6.38C467.073,72.078,463.838,70.828,462.174,69.305"/>
	<path clip-path="url(#SVGID_2_)" d="M486.149,71.751c-0.187,0-0.31-0.119-0.31-0.301V55.556c0-0.123-0.066-0.181-0.192-0.181h-5.4
		c-0.186,0-0.312-0.119-0.312-0.299v-3.311c0-0.179,0.126-0.297,0.312-0.297h15.794c0.188,0,0.313,0.118,0.313,0.297v3.311
		c0,0.18-0.126,0.299-0.313,0.299h-5.402c-0.124,0-0.188,0.058-0.188,0.181v15.895c0,0.182-0.126,0.301-0.314,0.301H486.149z"/>
	<path clip-path="url(#SVGID_2_)" d="M510.677,71.751c-0.28,0-0.376-0.09-0.472-0.299l-3.671-7.427h-2.857
		c-0.128,0-0.188,0.058-0.188,0.18v7.247c0,0.18-0.127,0.299-0.315,0.299h-3.986c-0.189,0-0.313-0.119-0.313-0.299V51.766
		c0-0.177,0.124-0.298,0.313-0.298h8.508c4.366,0,7.252,2.594,7.252,6.294c0,2.594-1.444,4.655-3.797,5.635l4.206,7.994
		c0.096,0.181,0,0.36-0.218,0.36H510.677z M510.331,57.762c0-1.521-1.129-2.508-2.888-2.508h-3.767c-0.128,0-0.188,0.06-0.188,0.179
		v4.686c0,0.117,0.061,0.178,0.188,0.178h3.767C509.202,60.296,510.331,59.313,510.331,57.762"/>
	<path clip-path="url(#SVGID_2_)" d="M518.171,51.767c0-0.18,0.124-0.298,0.313-0.298h3.986c0.186,0,0.315,0.118,0.315,0.298v19.688
		c0,0.177-0.13,0.299-0.315,0.299h-3.986c-0.189,0-0.313-0.122-0.313-0.299V51.767z"/>
	<path clip-path="url(#SVGID_2_)" d="M526.726,51.767c0-0.18,0.128-0.298,0.315-0.298h13.688c0.188,0,0.316,0.118,0.316,0.298v3.19
		c0,0.181-0.128,0.299-0.316,0.299h-9.2c-0.126,0-0.188,0.06-0.188,0.177v4.031c0,0.117,0.062,0.175,0.188,0.175h7.663
		c0.188,0,0.312,0.121,0.312,0.301v3.161c0,0.179-0.124,0.298-0.312,0.298h-7.663c-0.126,0-0.188,0.062-0.188,0.178v4.207
		c0,0.118,0.062,0.178,0.188,0.178h9.2c0.188,0,0.316,0.121,0.316,0.299v3.194c0,0.177-0.128,0.299-0.316,0.299h-13.688
		c-0.188,0-0.315-0.122-0.315-0.299V51.767z"/>
	<path clip-path="url(#SVGID_2_)" d="M543.394,69.305c-0.126-0.12-0.191-0.326-0.031-0.508l2.384-2.596
		c0.128-0.151,0.316-0.151,0.47-0.027c1.416,1.074,3.331,2.086,5.59,2.086c2.23,0,3.485-0.985,3.485-2.417
		c0-1.194-0.753-1.937-3.296-2.267l-1.132-0.147c-4.33-0.565-6.749-2.507-6.749-6.085c0-3.729,2.95-6.203,7.565-6.203
		c2.826,0,5.463,0.805,7.254,2.118c0.184,0.118,0.218,0.237,0.064,0.448l-1.916,2.713c-0.125,0.147-0.283,0.179-0.441,0.086
		c-1.632-1.01-3.197-1.549-4.961-1.549c-1.881,0-2.855,0.926-2.855,2.207c0,1.163,0.879,1.911,3.329,2.239l1.13,0.147
		c4.396,0.567,6.717,2.475,6.717,6.146c0,3.669-2.857,6.38-8.384,6.38C548.293,72.078,545.056,70.828,543.394,69.305"/>
	<path clip-path="url(#SVGID_2_)" d="M393.904,87.178c0-3.008,0.126-4.143,0.595-5.544c1.103-3.282,4.049-4.922,7.85-4.922
		c3.986,0,6.592,1.879,7.597,4.323c0.098,0.181,0.066,0.356-0.124,0.449l-3.358,1.342c-0.218,0.058-0.378,0-0.441-0.151
		c-0.846-1.369-1.912-2.084-3.673-2.084c-1.821,0-2.95,0.862-3.421,2.264c-0.254,0.719-0.348,1.668-0.348,4.323
		c0,2.657,0.094,3.641,0.348,4.359c0.471,1.398,1.631,2.233,3.484,2.233c1.602,0,2.983-0.745,3.424-2.089
		c0.157-0.505,0.249-1.132,0.249-1.996c0-0.121-0.063-0.182-0.189-0.182h-2.888c-0.188,0-0.312-0.117-0.312-0.298v-2.86
		c0-0.18,0.124-0.299,0.312-0.299h7.35c0.186,0,0.312,0.119,0.312,0.299v1.672c0,1.789-0.157,3.46-0.533,4.561
		c-1.068,3.25-4.021,5.073-7.788,5.073c-3.801,0-6.747-1.642-7.85-4.924C394.03,91.324,393.904,90.19,393.904,87.178"/>
	<path clip-path="url(#SVGID_2_)" d="M425.5,97.324c-0.283,0-0.378-0.092-0.469-0.299l-3.676-7.429h-2.857
		c-0.128,0-0.186,0.06-0.186,0.178v7.251c0,0.177-0.13,0.299-0.315,0.299h-3.989c-0.189,0-0.313-0.122-0.313-0.299V77.335
		c0-0.174,0.124-0.295,0.313-0.295h8.508c4.364,0,7.256,2.592,7.256,6.29c0,2.596-1.447,4.655-3.803,5.639l4.208,7.994
		c0.093,0.179,0,0.36-0.219,0.36H425.5z M425.152,83.331c0-1.521-1.128-2.504-2.89-2.504h-3.765c-0.128,0-0.186,0.06-0.186,0.181
		v4.678c0,0.126,0.058,0.181,0.186,0.181h3.765C424.024,85.866,425.152,84.885,425.152,83.331"/>
	<path clip-path="url(#SVGID_2_)" d="M432.896,92.727c-0.472-1.403-0.597-2.537-0.597-5.551c0-3.008,0.125-4.143,0.597-5.542
		c1.103-3.282,4.048-4.924,7.785-4.924c3.738,0,6.69,1.642,7.785,4.924c0.473,1.399,0.601,2.534,0.601,5.542
		c0,3.014-0.128,4.147-0.601,5.551c-1.095,3.283-4.047,4.923-7.785,4.923C436.944,97.65,433.999,96.01,432.896,92.727
		 M444.043,91.538c0.251-0.717,0.346-1.702,0.346-4.361c0-2.651-0.095-3.637-0.346-4.35c-0.474-1.403-1.6-2.235-3.361-2.235
		c-1.758,0-2.888,0.832-3.359,2.235c-0.25,0.713-0.342,1.698-0.342,4.35c0,2.659,0.092,3.645,0.342,4.361
		c0.472,1.396,1.602,2.233,3.359,2.233C442.443,93.771,443.569,92.934,444.043,91.538"/>
	<path clip-path="url(#SVGID_2_)" d="M452.043,89.866V77.337c0-0.176,0.128-0.299,0.317-0.299h3.982
		c0.191,0,0.319,0.123,0.319,0.299v12.646c0,2.418,1.41,3.788,3.577,3.788c2.133,0,3.547-1.37,3.547-3.788V77.337
		c0-0.176,0.124-0.299,0.312-0.299h3.988c0.189,0,0.313,0.123,0.313,0.299v12.528c0,5.041-3.389,7.784-8.16,7.784
		C455.437,97.65,452.043,94.907,452.043,89.866"/>
	<path clip-path="url(#SVGID_2_)" d="M472.321,97.324c-0.191,0-0.315-0.122-0.315-0.301V77.337c0-0.176,0.124-0.299,0.315-0.299
		h8.287c4.647,0,7.443,2.655,7.443,6.533c0,3.817-2.828,6.502-7.443,6.502h-3.799c-0.126,0-0.188,0.059-0.188,0.18v6.77
		c0,0.179-0.127,0.301-0.313,0.301H472.321z M483.434,83.572c0-1.641-1.162-2.743-3.105-2.743h-3.519
		c-0.126,0-0.188,0.058-0.188,0.179v5.1c0,0.117,0.062,0.18,0.188,0.18h3.519C482.271,86.287,483.434,85.211,483.434,83.572"/>
	<path clip-path="url(#SVGID_2_)" d="M0,0.637c0-0.178,0.129-0.3,0.312-0.3H3.11c0.28,0,0.435,0.094,0.53,0.3l5.877,12.493H9.64
		l5.779-12.493c0.089-0.206,0.249-0.3,0.531-0.3h2.763c0.177,0,0.31,0.122,0.31,0.3v19.685c0,0.175-0.133,0.292-0.31,0.292h-2.73
		c-0.192,0-0.315-0.118-0.315-0.292V7.918h-0.129l-4.517,9.533c-0.131,0.271-0.313,0.391-0.602,0.391H8.604
		c-0.282,0-0.47-0.12-0.602-0.391L3.488,7.918H3.365v12.403c0,0.175-0.129,0.292-0.318,0.292H0.312C0.129,20.614,0,20.496,0,20.321
		V0.637z"/>
	<path clip-path="url(#SVGID_2_)" d="M22.55,16.051c-0.444-1.256-0.565-2.383-0.565-5.573s0.122-4.323,0.565-5.578
		c1.094-3.219,3.857-4.892,7.528-4.892c3.703,0,6.471,1.672,7.572,4.892c0.441,1.254,0.558,2.388,0.558,5.578
		s-0.116,4.317-0.558,5.573c-1.101,3.217-3.869,4.888-7.572,4.888C26.408,20.939,23.645,19.268,22.55,16.051 M34.064,15.127
		c0.255-0.741,0.384-1.787,0.384-4.648c0-2.892-0.129-3.906-0.384-4.652c-0.595-1.644-1.848-2.654-3.986-2.654
		c-2.099,0-3.355,1.01-3.951,2.654c-0.249,0.746-0.383,1.76-0.383,4.652c0,2.861,0.134,3.907,0.383,4.648
		c0.596,1.638,1.853,2.651,3.951,2.651C32.216,17.778,33.469,16.765,34.064,15.127"/>
	<path clip-path="url(#SVGID_2_)" d="M45.879,20.614c-0.188,0-0.312-0.123-0.371-0.293L38.754,0.637
		c-0.059-0.177,0.063-0.299,0.25-0.299h3.047c0.222,0,0.345,0.092,0.412,0.299l4.765,14.37h0.103l4.584-14.37
		c0.059-0.207,0.182-0.299,0.407-0.299h3.036c0.188,0,0.316,0.122,0.25,0.299L48.835,20.32c-0.061,0.171-0.193,0.293-0.376,0.293
		H45.879z"/>
	<path clip-path="url(#SVGID_2_)" d="M57.661,0.637c0-0.178,0.125-0.3,0.315-0.3h13.375c0.181,0,0.315,0.122,0.315,0.3v2.561
		c0,0.183-0.134,0.303-0.315,0.303h-9.798c-0.124,0-0.188,0.053-0.188,0.178v4.952c0,0.119,0.064,0.178,0.188,0.178h8.255
		c0.19,0,0.315,0.12,0.315,0.297v2.562c0,0.183-0.125,0.301-0.315,0.301h-8.255c-0.124,0-0.188,0.063-0.188,0.183v5.124
		c0,0.116,0.064,0.177,0.188,0.177h9.798c0.181,0,0.315,0.124,0.315,0.303v2.568c0,0.171-0.134,0.292-0.315,0.292H57.976
		c-0.19,0-0.315-0.122-0.315-0.292V0.637z"/>
	<path clip-path="url(#SVGID_2_)" d="M85.661,20.614c-0.188,0-0.313-0.123-0.313-0.293V3.677c0-0.122-0.068-0.178-0.19-0.178h-5.582
		c-0.198,0-0.323-0.12-0.323-0.302v-2.56c0-0.177,0.125-0.299,0.323-0.299h15.245c0.188,0,0.32,0.122,0.32,0.299v2.56
		c0,0.183-0.132,0.302-0.32,0.302h-5.582c-0.129,0-0.188,0.056-0.188,0.178V20.32c0,0.171-0.132,0.293-0.315,0.293H85.661z"/>
	<path clip-path="url(#SVGID_2_)" d="M97.283,0.637c0-0.178,0.129-0.3,0.31-0.3h3.081c0.187,0,0.312,0.122,0.312,0.3v7.993
		c0,0.119,0.061,0.178,0.185,0.178h8.131c0.131,0,0.194-0.059,0.194-0.178V0.637c0-0.178,0.118-0.3,0.315-0.3h3.079
		c0.176,0,0.31,0.122,0.31,0.3v19.685c0,0.171-0.134,0.292-0.31,0.292h-3.079c-0.197,0-0.315-0.122-0.315-0.292v-8.172
		c0-0.12-0.063-0.183-0.194-0.183h-8.131c-0.124,0-0.185,0.063-0.185,0.183v8.172c0,0.171-0.125,0.292-0.312,0.292h-3.081
		c-0.181,0-0.31-0.122-0.31-0.292V0.637z"/>
	<path clip-path="url(#SVGID_2_)" d="M116.73,0.637c0-0.178,0.127-0.3,0.31-0.3h13.378c0.19,0,0.312,0.122,0.312,0.3v2.561
		c0,0.183-0.122,0.303-0.312,0.303h-9.79c-0.134,0-0.197,0.053-0.197,0.178v4.952c0,0.119,0.063,0.178,0.197,0.178h8.248
		c0.194,0,0.319,0.12,0.319,0.297v2.562c0,0.183-0.125,0.301-0.319,0.301h-8.248c-0.134,0-0.197,0.063-0.197,0.183v5.124
		c0,0.116,0.063,0.177,0.197,0.177h9.79c0.19,0,0.312,0.124,0.312,0.303v2.568c0,0.171-0.122,0.292-0.312,0.292h-13.378
		c-0.183,0-0.31-0.122-0.31-0.292V0.637z"/>
	<path clip-path="url(#SVGID_2_)" d="M155.28,20.614c-0.189,0-0.319-0.123-0.378-0.293l-4.084-13.872h-0.063l-4.104,13.872
		c-0.07,0.171-0.195,0.293-0.387,0.293h-2.346c-0.195,0-0.319-0.123-0.382-0.293l-5.24-19.684c-0.031-0.177,0.035-0.299,0.252-0.299
		h2.95c0.22,0,0.354,0.122,0.38,0.299l3.388,13.321h0.063l3.981-13.321c0.067-0.177,0.19-0.299,0.378-0.299h2.193
		c0.229,0,0.316,0.122,0.385,0.299l4.076,13.321h0.065l3.293-13.321c0.033-0.207,0.188-0.299,0.378-0.299h2.916
		c0.223,0,0.286,0.122,0.253,0.299l-5.212,19.684c-0.032,0.171-0.184,0.293-0.373,0.293H155.28z"/>
	<path clip-path="url(#SVGID_2_)" d="M164.709,16.051c-0.438-1.256-0.559-2.383-0.559-5.573s0.12-4.323,0.559-5.578
		c1.102-3.219,3.862-4.892,7.529-4.892c3.708,0,6.472,1.672,7.568,4.892c0.445,1.254,0.568,2.388,0.568,5.578
		s-0.123,4.317-0.568,5.573c-1.097,3.217-3.86,4.888-7.568,4.888C168.571,20.939,165.811,19.268,164.709,16.051 M176.229,15.127
		c0.26-0.741,0.378-1.787,0.378-4.648c0-2.892-0.118-3.906-0.378-4.652c-0.596-1.644-1.855-2.654-3.99-2.654
		c-2.101,0-3.356,1.01-3.953,2.654c-0.248,0.746-0.372,1.76-0.372,4.652c0,2.861,0.124,3.907,0.372,4.648
		c0.597,1.638,1.853,2.651,3.953,2.651C174.373,17.778,175.633,16.765,176.229,15.127"/>
	<path clip-path="url(#SVGID_2_)" d="M195.449,20.612c-0.254,0-0.381-0.085-0.467-0.291l-4.087-7.906h-3.666
		c-0.135,0-0.197,0.062-0.197,0.175v7.731c0,0.171-0.118,0.291-0.31,0.291h-3.077c-0.188,0-0.313-0.12-0.313-0.291V0.637
		c0-0.178,0.125-0.301,0.313-0.301h8.251c3.925,0,6.821,2.474,6.821,6.058c0,2.656-1.604,4.713-4.051,5.572l4.49,8.257
		c0.123,0.211,0,0.389-0.226,0.389H195.449z M195.044,6.394c0-1.76-1.325-2.894-3.271-2.894h-4.544
		c-0.135,0-0.197,0.053-0.197,0.177v5.401c0,0.118,0.062,0.173,0.197,0.173h4.544C193.719,9.251,195.044,8.121,195.044,6.394"/>
	<path clip-path="url(#SVGID_2_)" d="M201.582,0.637c0-0.178,0.131-0.3,0.311-0.3h3.086c0.183,0,0.312,0.122,0.312,0.3v16.637
		c0,0.116,0.06,0.177,0.184,0.177h9.09c0.188,0,0.317,0.124,0.317,0.303v2.568c0,0.171-0.13,0.292-0.317,0.292h-12.672
		c-0.18,0-0.311-0.122-0.311-0.292V0.637z"/>
	<path clip-path="url(#SVGID_2_)" d="M217.056,0.637c0-0.179,0.124-0.301,0.309-0.301h7.631c3.673,0,6.124,1.549,7.124,4.506
		c0.345,1.012,0.531,2.117,0.531,5.637c0,3.515-0.187,4.615-0.531,5.633c-1,2.95-3.451,4.501-7.124,4.501h-7.631
		c-0.185,0-0.309-0.123-0.309-0.293V0.637z M220.944,17.45h3.175c2.352,0,3.797-0.741,4.427-2.558
		c0.216-0.57,0.373-1.495,0.373-4.413c0-2.95-0.157-3.852-0.373-4.414c-0.63-1.822-2.075-2.566-4.427-2.566h-3.175
		c-0.121,0-0.188,0.054-0.188,0.178v13.597C220.756,17.39,220.823,17.45,220.944,17.45"/>
	<path clip-path="url(#SVGID_2_)" d="M241.251,0.637c0-0.178,0.132-0.3,0.318-0.3h13.37c0.185,0,0.316,0.122,0.316,0.3v2.561
		c0,0.183-0.132,0.303-0.316,0.303h-9.792c-0.123,0-0.183,0.053-0.183,0.178v5.155c0,0.124,0.06,0.18,0.183,0.18h8.252
		c0.19,0,0.319,0.121,0.319,0.301v2.564c0,0.177-0.129,0.301-0.319,0.301h-8.252c-0.123,0-0.183,0.053-0.183,0.176v7.966
		c0,0.171-0.136,0.292-0.325,0.292h-3.07c-0.187,0-0.318-0.122-0.318-0.292V0.637z"/>
	<path clip-path="url(#SVGID_2_)" d="M257.368,16.051c-0.44-1.256-0.567-2.383-0.567-5.573s0.127-4.323,0.567-5.578
		c1.097-3.219,3.861-4.892,7.534-4.892c3.7,0,6.46,1.672,7.563,4.892c0.438,1.254,0.562,2.388,0.562,5.578s-0.124,4.317-0.562,5.573
		c-1.104,3.217-3.863,4.888-7.563,4.888C261.229,20.939,258.465,19.268,257.368,16.051 M268.885,15.127
		c0.253-0.741,0.378-1.787,0.378-4.648c0-2.892-0.125-3.906-0.378-4.652c-0.599-1.644-1.847-2.654-3.982-2.654
		c-2.104,0-3.357,1.01-3.958,2.654c-0.246,0.746-0.378,1.76-0.378,4.652c0,2.861,0.132,3.907,0.378,4.648
		c0.601,1.638,1.854,2.651,3.958,2.651C267.038,17.778,268.286,16.765,268.885,15.127"/>
	<path clip-path="url(#SVGID_2_)" d="M288.102,20.612c-0.249,0-0.369-0.085-0.467-0.291l-4.076-7.906h-3.678
		c-0.119,0-0.185,0.062-0.185,0.175v7.731c0,0.171-0.125,0.291-0.315,0.291h-3.076c-0.19,0-0.319-0.12-0.319-0.291V0.637
		c0-0.178,0.129-0.301,0.319-0.301h8.256c3.921,0,6.805,2.474,6.805,6.058c0,2.656-1.598,4.713-4.044,5.572l4.482,8.257
		c0.131,0.211,0,0.389-0.207,0.389H288.102z M287.698,6.394c0-1.76-1.312-2.894-3.263-2.894h-4.555
		c-0.119,0-0.185,0.053-0.185,0.177v5.401c0,0.118,0.065,0.173,0.185,0.173h4.555C286.387,9.251,287.698,8.121,287.698,6.394"/>
	<path clip-path="url(#SVGID_2_)" d="M309.487,20.614c-0.186,0-0.31-0.123-0.371-0.293l-4.087-13.872h-0.051L300.86,20.32
		c-0.061,0.171-0.188,0.293-0.376,0.293h-2.358c-0.189,0-0.312-0.123-0.374-0.293l-5.244-19.684
		c-0.03-0.177,0.032-0.299,0.256-0.299h2.948c0.219,0,0.345,0.122,0.375,0.299l3.389,13.321h0.068l3.984-13.321
		c0.063-0.177,0.196-0.299,0.378-0.299h2.192c0.224,0,0.319,0.122,0.379,0.299l4.083,13.321h0.063l3.289-13.321
		c0.032-0.207,0.194-0.299,0.378-0.299h2.928c0.218,0,0.279,0.122,0.237,0.299l-5.205,19.684c-0.029,0.171-0.183,0.293-0.37,0.293
		H309.487z"/>
	<path clip-path="url(#SVGID_2_)" d="M352.92,20.612c-0.254,0-0.377-0.085-0.467-0.291l-4.087-7.906h-3.672
		c-0.126,0-0.186,0.062-0.186,0.175v7.731c0,0.171-0.129,0.291-0.318,0.291h-3.071c-0.191,0-0.313-0.12-0.313-0.291V0.637
		c0-0.178,0.122-0.301,0.313-0.301h8.259c3.92,0,6.81,2.474,6.81,6.058c0,2.656-1.61,4.713-4.048,5.572l4.491,8.257
		c0.12,0.211,0,0.389-0.226,0.389H352.92z M352.515,6.394c0-1.76-1.318-2.894-3.268-2.894h-4.553c-0.126,0-0.186,0.053-0.186,0.177
		v5.401c0,0.118,0.06,0.173,0.186,0.173h4.553C351.196,9.251,352.515,8.121,352.515,6.394"/>
	<path clip-path="url(#SVGID_2_)" d="M359.055,0.637c0-0.179,0.128-0.301,0.317-0.301h7.631c3.669,0,6.117,1.549,7.124,4.506
		c0.344,1.012,0.529,2.117,0.529,5.637c0,3.515-0.186,4.615-0.529,5.633c-1.007,2.95-3.455,4.501-7.124,4.501h-7.631
		c-0.189,0-0.317-0.123-0.317-0.293V0.637z M362.951,17.45h3.167c2.354,0,3.798-0.741,4.426-2.558
		c0.22-0.57,0.379-1.495,0.379-4.413c0-2.95-0.159-3.852-0.379-4.414c-0.628-1.822-2.071-2.566-4.426-2.566h-3.167
		c-0.128,0-0.187,0.054-0.187,0.178v13.597C362.765,17.39,362.823,17.45,362.951,17.45"/>
	<path clip-path="url(#SVGID_2_)" fill="#DF0615" d="M338.46,8.927l-19.008-8.57c-0.386-0.169-0.397,0.102-0.397,0.302v2.994
		c0,0.227,0.09,0.365,0.295,0.44l5.264,2.315v8.23l-5.264,2.311c-0.205,0.078-0.295,0.218-0.295,0.439v2.996
		c0,0.207,0.012,0.477,0.397,0.304l19.008-8.572c0.177-0.074,0.287-0.201,0.287-0.43v-2.33
		C338.747,9.138,338.637,9.004,338.46,8.927 M333.763,10.572l-5.53,2.433V8.043l5.53,2.436V10.572z"/>
</g>
</svg>
