<?xml version="1.0" encoding="utf-8"?>
<!-- Generator: Adobe Illustrator 15.0.0, SVG Export Plug-In  -->
<!DOCTYPE svg PUBLIC "-//W3C//DTD SVG 1.1//EN" "http://www.w3.org/Graphics/SVG/1.1/DTD/svg11.dtd" [
	<!ENTITY ns_flows "http://ns.adobe.com/Flows/1.0/">
]>
<svg version="1.1"
	 xmlns="http://www.w3.org/2000/svg" xmlns:xlink="http://www.w3.org/1999/xlink" xmlns:a="http://ns.adobe.com/AdobeSVGViewerExtensions/3.0/"
	 x="0px" y="0px" width="162px" height="96px" viewBox="0 -0.376 162 96"
	 overflow="visible" enable-background="new 0 -0.376 162 96" xml:space="preserve">
<defs>
</defs>
<g>
	<defs>
		<rect id="SVGID_1_" width="162" height="95.247"/>
	</defs>
	<clipPath id="SVGID_2_">
		<use xlink:href="#SVGID_1_"  overflow="visible"/>
	</clipPath>
	<path clip-path="url(#SVGID_2_)" d="M1.002,0.613c0-0.176,0.127-0.289,0.31-0.289h3.645c0.245,0,0.396,0.086,0.493,0.289
		l5.26,11.29h0.128l5.171-11.29c0.089-0.203,0.251-0.289,0.496-0.289h3.58c0.186,0,0.313,0.113,0.313,0.289v19.203
		c0,0.171-0.128,0.292-0.313,0.292h-3.459c-0.186,0-0.303-0.121-0.303-0.292V8.678h-0.128l-3.855,8.344
		c-0.124,0.266-0.307,0.379-0.583,0.379H9.639c-0.275,0-0.458-0.113-0.578-0.379L5.202,8.678H5.074v11.138
		c0,0.171-0.117,0.292-0.299,0.292H1.312c-0.182,0-0.31-0.121-0.31-0.292V0.613z"/>
	<path clip-path="url(#SVGID_2_)" d="M24.284,0.613c0-0.176,0.124-0.289,0.307-0.289h3.889c0.179,0,0.307,0.113,0.307,0.289v19.203
		c0,0.171-0.127,0.292-0.307,0.292H24.59c-0.183,0-0.307-0.121-0.307-0.292V0.613z"/>
	<path clip-path="url(#SVGID_2_)" d="M37.274,20.108c-0.189,0-0.303-0.121-0.303-0.292V4.31c0-0.12-0.069-0.179-0.189-0.179h-5.268
		c-0.182,0-0.303-0.113-0.303-0.289V0.614c0-0.176,0.121-0.289,0.303-0.289H46.92c0.179,0,0.303,0.113,0.303,0.289v3.228
		c0,0.176-0.124,0.289-0.303,0.289h-5.267c-0.125,0-0.186,0.059-0.186,0.179v15.506c0,0.172-0.128,0.292-0.303,0.292H37.274z"/>
	<path clip-path="url(#SVGID_2_)" d="M48.457,17.721c-0.121-0.121-0.182-0.321-0.031-0.5l2.326-2.528
		c0.123-0.145,0.306-0.145,0.454-0.034c1.381,1.053,3.256,2.042,5.46,2.042c2.174,0,3.396-0.961,3.396-2.353
		c0-1.164-0.734-1.898-3.217-2.215l-1.099-0.145c-4.228-0.555-6.584-2.443-6.584-5.939c0-3.638,2.874-6.05,7.376-6.05
		c2.763,0,5.333,0.789,7.073,2.074c0.186,0.11,0.22,0.228,0.069,0.431l-1.878,2.649c-0.114,0.145-0.272,0.172-0.427,0.086
		c-1.588-0.989-3.118-1.509-4.836-1.509c-1.839,0-2.787,0.899-2.787,2.149c0,1.134,0.861,1.863,3.252,2.177l1.099,0.152
		c4.286,0.551,6.556,2.412,6.556,5.99c0,3.58-2.787,6.232-8.175,6.232C53.235,20.432,50.083,19.207,48.457,17.721"/>
	<path clip-path="url(#SVGID_2_)" d="M67.459,12.833V0.613c0-0.175,0.124-0.289,0.307-0.289h3.889c0.187,0,0.307,0.114,0.307,0.289
		v12.33c0,2.363,1.381,3.7,3.489,3.7c2.081,0,3.459-1.336,3.459-3.7V0.613c0-0.175,0.127-0.289,0.303-0.289h3.893
		c0.186,0,0.314,0.114,0.314,0.289v12.219c0,4.916-3.311,7.6-7.969,7.6C70.77,20.432,67.459,17.749,67.459,12.833"/>
	<path clip-path="url(#SVGID_2_)" d="M87.207,0.613c0-0.175,0.117-0.289,0.306-0.289h8.117c4.53,0,6.645,2.125,6.645,5.26
		c0,2.161-1.047,3.49-2.418,4.224v0.052c1.371,0.5,2.787,2.129,2.787,4.489c0,3.897-2.725,5.76-7.228,5.76h-7.903
		c-0.189,0-0.306-0.121-0.306-0.292V0.613z M95.078,8.409c1.712,0,2.725-0.875,2.725-2.325c0-1.454-1.013-2.301-2.725-2.301h-3.18
		c-0.127,0-0.193,0.059-0.193,0.179v4.275c0,0.114,0.066,0.172,0.193,0.172H95.078z M91.898,16.643h3.424
		c1.836,0,2.814-0.93,2.814-2.473c0-1.512-0.978-2.467-2.814-2.467h-3.424c-0.127,0-0.193,0.055-0.193,0.168v4.599
		C91.705,16.591,91.771,16.643,91.898,16.643"/>
	<path clip-path="url(#SVGID_2_)" d="M105.771,0.613c0-0.176,0.127-0.289,0.31-0.289h3.89c0.182,0,0.303,0.113,0.303,0.289v19.203
		c0,0.171-0.121,0.292-0.303,0.292h-3.89c-0.183,0-0.31-0.121-0.31-0.292V0.613z"/>
	<path clip-path="url(#SVGID_2_)" d="M113.126,17.721c-0.121-0.121-0.175-0.321-0.031-0.5l2.329-2.528
		c0.128-0.145,0.309-0.145,0.468-0.034c1.372,1.053,3.242,2.042,5.447,2.042c2.167,0,3.397-0.961,3.397-2.353
		c0-1.164-0.734-1.898-3.215-2.215l-1.102-0.145c-4.227-0.555-6.58-2.443-6.58-5.939c0-3.638,2.873-6.05,7.373-6.05
		c2.763,0,5.332,0.789,7.076,2.074c0.187,0.11,0.216,0.228,0.058,0.431l-1.867,2.649c-0.123,0.145-0.275,0.172-0.43,0.086
		c-1.585-0.989-3.118-1.509-4.836-1.509c-1.837,0-2.788,0.899-2.788,2.149c0,1.134,0.861,1.863,3.255,2.177l1.096,0.152
		c4.288,0.551,6.559,2.412,6.559,5.99c0,3.58-2.791,6.232-8.185,6.232C117.901,20.432,114.756,19.207,113.126,17.721"/>
	<path clip-path="url(#SVGID_2_)" d="M132.18,0.613c0-0.176,0.121-0.289,0.303-0.289h3.886c0.186,0,0.31,0.113,0.31,0.289v7.417
		c0,0.12,0.059,0.178,0.179,0.178h6.8c0.124,0,0.187-0.058,0.187-0.178V0.613c0-0.176,0.12-0.289,0.306-0.289h3.89
		c0.183,0,0.304,0.113,0.304,0.289v19.203c0,0.171-0.121,0.292-0.304,0.292h-3.89c-0.186,0-0.306-0.121-0.306-0.292v-7.621
		c0-0.117-0.062-0.179-0.187-0.179h-6.8c-0.121,0-0.179,0.062-0.179,0.179v7.621c0,0.171-0.125,0.292-0.31,0.292h-3.886
		c-0.183,0-0.303-0.121-0.303-0.292V0.613z"/>
	<path clip-path="url(#SVGID_2_)" d="M152.233,0.613c0-0.176,0.128-0.289,0.311-0.289h3.889c0.184,0,0.311,0.113,0.311,0.289v19.203
		c0,0.171-0.127,0.292-0.311,0.292h-3.889c-0.183,0-0.311-0.121-0.311-0.292V0.613z"/>
	<path clip-path="url(#SVGID_2_)" d="M1.002,25.552c0-0.169,0.127-0.29,0.31-0.29h3.89c0.183,0,0.307,0.121,0.307,0.29v7.424
		c0,0.117,0.059,0.175,0.183,0.175h6.797c0.127,0,0.183-0.058,0.183-0.175v-7.424c0-0.169,0.12-0.29,0.31-0.29h3.886
		c0.186,0,0.31,0.121,0.31,0.29v19.206c0,0.172-0.124,0.289-0.31,0.289H12.98c-0.189,0-0.31-0.117-0.31-0.289v-7.621
		c0-0.117-0.056-0.183-0.183-0.183H5.691c-0.124,0-0.183,0.065-0.183,0.183v7.621c0,0.172-0.124,0.289-0.307,0.289h-3.89
		c-0.182,0-0.31-0.117-0.31-0.289V25.552z"/>
	<path clip-path="url(#SVGID_2_)" d="M21.069,25.552c0-0.169,0.117-0.29,0.307-0.29h13.35c0.186,0,0.307,0.121,0.307,0.29v3.114
		c0,0.175-0.121,0.292-0.307,0.292h-8.972c-0.126,0-0.182,0.056-0.182,0.172v3.928c0,0.117,0.056,0.175,0.182,0.175h7.473
		c0.183,0,0.307,0.117,0.307,0.289v3.088c0,0.175-0.125,0.289-0.307,0.289h-7.473c-0.126,0-0.182,0.055-0.182,0.18v4.099
		c0,0.114,0.056,0.173,0.182,0.173h8.972c0.186,0,0.307,0.121,0.307,0.292v3.114c0,0.172-0.121,0.289-0.307,0.289h-13.35
		c-0.189,0-0.307-0.117-0.307-0.289V25.552z"/>
	<path clip-path="url(#SVGID_2_)" d="M44.172,25.552c0.062-0.169,0.182-0.29,0.396-0.29h3.866c0.203,0,0.327,0.121,0.396,0.29
		l7.039,19.206c0.062,0.172,0,0.29-0.213,0.29h-3.982c-0.21,0-0.338-0.09-0.396-0.29l-1.192-3.466h-7.29l-1.161,3.466
		c-0.062,0.2-0.19,0.29-0.403,0.29h-4.01c-0.217,0-0.276-0.117-0.217-0.29L44.172,25.552z M48.856,37.657l-2.359-6.92h-0.09
		l-2.363,6.92H48.856z"/>
	<path clip-path="url(#SVGID_2_)" d="M61.272,45.046c-0.221,0-0.345-0.117-0.4-0.289l-6.621-19.175
		c-0.055-0.199,0.069-0.32,0.279-0.32h3.983c0.213,0,0.341,0.09,0.396,0.29l4.161,12.977h0.097l4.041-12.977
		c0.062-0.2,0.183-0.29,0.396-0.29h3.955c0.183,0,0.304,0.121,0.242,0.32l-6.608,19.175c-0.065,0.172-0.193,0.289-0.372,0.289
		H61.272z"/>
	<path clip-path="url(#SVGID_2_)" d="M79.675,45.046c-0.186,0-0.303-0.117-0.303-0.289v-7.592l-6.157-11.613
		c-0.058-0.142,0-0.29,0.217-0.29h3.979c0.221,0,0.369,0.09,0.465,0.29l3.758,7.217h0.089l3.77-7.217
		c0.093-0.2,0.248-0.29,0.464-0.29h3.852c0.217,0,0.311,0.148,0.217,0.29l-6.16,11.613v7.592c0,0.172-0.117,0.289-0.299,0.289
		H79.675z"/>
	<path clip-path="url(#SVGID_2_)" d="M1.002,50.494c0-0.173,0.127-0.29,0.31-0.29h3.89c0.183,0,0.307,0.117,0.307,0.29v19.202
		c0,0.175-0.124,0.292-0.307,0.292h-3.89c-0.182,0-0.31-0.117-0.31-0.292V50.494z"/>
	<path clip-path="url(#SVGID_2_)" d="M9.35,50.494c0-0.173,0.128-0.29,0.31-0.29h3.679c0.207,0,0.393,0.086,0.518,0.29l7.344,12.45
		h0.155v-12.45c0-0.173,0.124-0.29,0.313-0.29h3.452c0.186,0,0.311,0.117,0.311,0.29v19.202c0,0.175-0.125,0.292-0.311,0.292h-3.641
		c-0.245,0-0.4-0.093-0.514-0.292L13.58,57.276h-0.155v12.419c0,0.175-0.121,0.292-0.31,0.292H9.66c-0.182,0-0.31-0.117-0.31-0.292
		V50.494z"/>
	<path clip-path="url(#SVGID_2_)" d="M29.324,50.494c0-0.173,0.117-0.29,0.303-0.29h7.748c3.645,0,6.188,1.485,7.196,4.455
		c0.365,1.106,0.551,2.211,0.551,5.437c0,3.224-0.186,4.337-0.551,5.443c-1.009,2.966-3.551,4.451-7.196,4.451h-7.748
		c-0.186,0-0.303-0.117-0.303-0.292V50.494z M34.009,66.179h2.356c2.081,0,3.342-0.586,3.858-2.181
		c0.214-0.586,0.341-1.34,0.341-3.903c0-2.56-0.127-3.321-0.341-3.896c-0.516-1.599-1.777-2.184-3.858-2.184h-2.356
		c-0.124,0-0.182,0.058-0.182,0.179v11.81C33.827,66.12,33.885,66.179,34.009,66.179"/>
	<path clip-path="url(#SVGID_2_)" d="M48.195,62.713V50.494c0-0.173,0.117-0.29,0.31-0.29h3.886c0.186,0,0.303,0.117,0.303,0.29
		v12.333c0,2.36,1.378,3.699,3.493,3.699c2.085,0,3.463-1.339,3.463-3.699V50.494c0-0.173,0.121-0.29,0.307-0.29h3.89
		c0.182,0,0.303,0.117,0.303,0.29v12.219c0,4.916-3.303,7.592-7.962,7.592C51.499,70.305,48.195,67.628,48.195,62.713"/>
	<path clip-path="url(#SVGID_2_)" d="M66.588,67.597c-0.128-0.114-0.186-0.317-0.038-0.492l2.332-2.525
		c0.117-0.148,0.303-0.148,0.458-0.037c1.375,1.05,3.243,2.039,5.447,2.039c2.18,0,3.4-0.961,3.4-2.353
		c0-1.164-0.734-1.895-3.218-2.215l-1.095-0.142c-4.23-0.555-6.587-2.446-6.587-5.936c0-3.641,2.877-6.056,7.383-6.056
		c2.752,0,5.322,0.789,7.065,2.067c0.186,0.121,0.217,0.234,0.068,0.441l-1.867,2.646c-0.127,0.146-0.279,0.176-0.433,0.086
		c-1.592-0.988-3.125-1.516-4.834-1.516c-1.843,0-2.787,0.902-2.787,2.16c0,1.137,0.854,1.86,3.244,2.177l1.099,0.145
		c4.289,0.558,6.556,2.415,6.556,5.994s-2.791,6.225-8.179,6.225C71.359,70.305,68.204,69.093,66.588,67.597"/>
	<path clip-path="url(#SVGID_2_)" d="M89.969,69.988c-0.187,0-0.304-0.117-0.304-0.292V54.193c0-0.121-0.066-0.179-0.187-0.179
		h-5.267c-0.183,0-0.307-0.117-0.307-0.293v-3.228c0-0.173,0.124-0.29,0.307-0.29h15.399c0.193,0,0.31,0.117,0.31,0.29v3.228
		c0,0.176-0.117,0.293-0.31,0.293h-5.26c-0.128,0-0.187,0.058-0.187,0.179v15.503c0,0.175-0.121,0.292-0.307,0.292H89.969z"/>
	<path clip-path="url(#SVGID_2_)" d="M113.891,69.988c-0.279,0-0.368-0.093-0.458-0.292l-3.58-7.245h-2.791
		c-0.124,0-0.186,0.062-0.186,0.176v7.069c0,0.175-0.125,0.292-0.303,0.292h-3.886c-0.189,0-0.313-0.117-0.313-0.292V50.494
		c0-0.173,0.124-0.29,0.313-0.29h8.295c4.258,0,7.073,2.532,7.073,6.139c0,2.533-1.406,4.537-3.703,5.498l4.1,7.796
		c0.097,0.173,0,0.352-0.217,0.352H113.891z M113.554,56.343c0-1.485-1.106-2.446-2.812-2.446h-3.679
		c-0.124,0-0.186,0.062-0.186,0.175v4.572c0,0.114,0.062,0.172,0.186,0.172h3.679C112.447,58.816,113.554,57.855,113.554,56.343"/>
	<path clip-path="url(#SVGID_2_)" d="M121.197,50.494c0-0.173,0.128-0.29,0.311-0.29h3.885c0.183,0,0.304,0.117,0.304,0.29v19.202
		c0,0.175-0.121,0.292-0.304,0.292h-3.885c-0.183,0-0.311-0.117-0.311-0.292V50.494z"/>
	<path clip-path="url(#SVGID_2_)" d="M129.544,50.494c0-0.173,0.121-0.29,0.31-0.29h13.354c0.183,0,0.299,0.117,0.299,0.29v3.11
		c0,0.179-0.116,0.293-0.299,0.293h-8.978c-0.121,0-0.18,0.062-0.18,0.175V58c0,0.117,0.059,0.179,0.18,0.179h7.475
		c0.179,0,0.303,0.114,0.303,0.289v3.084c0,0.175-0.124,0.29-0.303,0.29h-7.475c-0.121,0-0.18,0.057-0.18,0.171v4.107
		c0,0.117,0.059,0.168,0.18,0.168h8.978c0.183,0,0.299,0.125,0.299,0.293v3.114c0,0.175-0.116,0.292-0.299,0.292h-13.354
		c-0.189,0-0.31-0.117-0.31-0.292V50.494z"/>
	<path clip-path="url(#SVGID_2_)" d="M145.802,67.597c-0.124-0.114-0.187-0.317-0.031-0.492l2.329-2.525
		c0.113-0.148,0.304-0.148,0.458-0.037c1.378,1.05,3.245,2.039,5.447,2.039c2.177,0,3.403-0.961,3.403-2.353
		c0-1.164-0.741-1.895-3.218-2.215l-1.096-0.142c-4.234-0.555-6.587-2.446-6.587-5.936c0-3.641,2.873-6.056,7.379-6.056
		c2.757,0,5.326,0.789,7.072,2.067c0.177,0.121,0.215,0.234,0.062,0.441l-1.867,2.646c-0.124,0.146-0.275,0.176-0.435,0.086
		c-1.584-0.988-3.124-1.516-4.833-1.516c-1.839,0-2.79,0.902-2.79,2.16c0,1.137,0.858,1.86,3.249,2.177l1.103,0.145
		C159.733,58.644,162,60.5,162,64.08s-2.787,6.225-8.178,6.225C150.58,70.305,147.425,69.093,145.802,67.597"/>
	<path clip-path="url(#SVGID_2_)" d="M0,85.036c0-2.935,0.121-4.041,0.579-5.412c1.071-3.201,3.951-4.799,7.654-4.799
		c3.89,0,6.428,1.833,7.411,4.221c0.089,0.172,0.062,0.348-0.125,0.438l-3.276,1.302c-0.209,0.062-0.369,0-0.427-0.138
		c-0.827-1.343-1.868-2.039-3.583-2.039c-1.777,0-2.879,0.84-3.341,2.208c-0.245,0.7-0.334,1.63-0.334,4.221s0.09,3.552,0.334,4.255
		c0.461,1.36,1.592,2.177,3.407,2.177c1.553,0,2.904-0.73,3.334-2.039c0.152-0.5,0.241-1.106,0.241-1.95
		c0-0.121-0.058-0.176-0.179-0.176H8.878c-0.183,0-0.307-0.113-0.307-0.293v-2.79c0-0.173,0.124-0.287,0.307-0.287h7.169
		c0.176,0,0.303,0.113,0.303,0.287v1.632c0,1.746-0.155,3.373-0.52,4.451c-1.043,3.165-3.921,4.943-7.597,4.943
		c-3.703,0-6.583-1.599-7.654-4.802C0.121,89.08,0,87.972,0,85.036"/>
	<path clip-path="url(#SVGID_2_)" d="M30.812,94.93c-0.276,0-0.362-0.089-0.458-0.289l-3.583-7.245h-2.787
		c-0.117,0-0.183,0.056-0.183,0.177v7.068c0,0.172-0.124,0.289-0.307,0.289h-3.882c-0.193,0-0.31-0.117-0.31-0.289V75.435
		c0-0.169,0.117-0.293,0.31-0.293h8.292c4.254,0,7.072,2.533,7.072,6.143c0,2.528-1.409,4.537-3.703,5.495l4.102,7.803
		c0.093,0.172,0,0.348-0.217,0.348H30.812z M30.478,81.284c0-1.484-1.099-2.442-2.818-2.442h-3.676
		c-0.117,0-0.183,0.058-0.183,0.172v4.564c0,0.125,0.066,0.176,0.183,0.176h3.676C29.379,83.754,30.478,82.797,30.478,81.284"/>
	<path clip-path="url(#SVGID_2_)" d="M38.029,90.445c-0.462-1.365-0.579-2.474-0.579-5.409c0-2.935,0.117-4.041,0.579-5.412
		c1.071-3.201,3.951-4.799,7.596-4.799c3.645,0,6.521,1.598,7.592,4.799c0.458,1.371,0.583,2.477,0.583,5.412
		c0,2.936-0.125,4.044-0.583,5.409c-1.071,3.203-3.948,4.802-7.592,4.802C41.98,95.247,39.101,93.648,38.029,90.445 M48.901,89.291
		c0.241-0.703,0.334-1.664,0.334-4.255s-0.093-3.549-0.334-4.251c-0.462-1.364-1.56-2.177-3.276-2.177
		c-1.719,0-2.825,0.813-3.28,2.177c-0.245,0.703-0.334,1.661-0.334,4.251s0.09,3.552,0.334,4.255c0.455,1.36,1.561,2.177,3.28,2.177
		C47.341,91.468,48.439,90.651,48.901,89.291"/>
	<path clip-path="url(#SVGID_2_)" d="M56.698,87.654V75.435c0-0.169,0.127-0.293,0.313-0.293h3.89c0.187,0,0.303,0.124,0.303,0.293
		v12.333c0,2.364,1.378,3.7,3.493,3.7c2.081,0,3.462-1.336,3.462-3.7V75.435c0-0.169,0.117-0.293,0.303-0.293h3.886
		c0.186,0,0.311,0.124,0.311,0.293v12.219c0,4.917-3.311,7.593-7.962,7.593C60.015,95.247,56.698,92.571,56.698,87.654"/>
	<path clip-path="url(#SVGID_2_)" d="M76.481,94.93c-0.186,0-0.31-0.117-0.31-0.289V75.435c0-0.169,0.124-0.293,0.31-0.293h8.082
		c4.53,0,7.258,2.591,7.258,6.374c0,3.72-2.756,6.346-7.258,6.346h-3.707c-0.124,0-0.183,0.058-0.183,0.172v6.607
		c0,0.172-0.121,0.289-0.303,0.289H76.481z M87.323,81.516c0-1.602-1.137-2.673-3.035-2.673h-3.431
		c-0.124,0-0.183,0.058-0.183,0.172v4.975c0,0.121,0.059,0.175,0.183,0.175h3.431C86.186,84.164,87.323,83.117,87.323,81.516"/>
</g>
</svg>
