<?xml version="1.0" encoding="utf-8"?>
<!-- Generator: Adobe Illustrator 15.0.0, SVG Export Plug-In  -->
<!DOCTYPE svg PUBLIC "-//W3C//DTD SVG 1.1//EN" "http://www.w3.org/Graphics/SVG/1.1/DTD/svg11.dtd" [
	<!ENTITY ns_flows "http://ns.adobe.com/Flows/1.0/">
]>
<svg version="1.1"
	 xmlns="http://www.w3.org/2000/svg" xmlns:xlink="http://www.w3.org/1999/xlink" xmlns:a="http://ns.adobe.com/AdobeSVGViewerExtensions/3.0/"
	 x="0px" y="0px" width="18px" height="18px" viewBox="0 -0.016 18 18" overflow="visible" enable-background="new 0 -0.016 18 18"
	 xml:space="preserve">
<defs>
</defs>
<rect x="0.296" y="5.966" width="3.733" height="12.001"/>
<g>
	<defs>
		<rect id="SVGID_1_" x="0" width="18" height="17.967"/>
	</defs>
	<clipPath id="SVGID_2_">
		<use xlink:href="#SVGID_1_"  overflow="visible"/>
	</clipPath>
	<path clip-path="url(#SVGID_2_)" d="M2.165,4.327C0.966,4.327,0,3.357,0,2.163C0,0.969,0.966,0,2.165,0
		c1.193,0,2.162,0.969,2.162,2.163C4.327,3.357,3.357,4.327,2.165,4.327"/>
	<path clip-path="url(#SVGID_2_)" d="M18,17.967h-3.729v-5.836c0-1.391-0.024-3.182-1.938-3.182c-1.94,0-2.237,1.517-2.237,3.083
		v5.936H6.37V5.966h3.576v1.641h0.051c0.497-0.944,1.714-1.938,3.529-1.938c3.776,0,4.475,2.485,4.475,5.717V17.967z"/>
</g>
</svg>
