<?xml version="1.0" encoding="utf-8"?>
<!-- Generator: Adobe Illustrator 15.0.0, SVG Export Plug-In  -->
<!DOCTYPE svg PUBLIC "-//W3C//DTD SVG 1.1//EN" "http://www.w3.org/Graphics/SVG/1.1/DTD/svg11.dtd" [
	<!ENTITY ns_flows "http://ns.adobe.com/Flows/1.0/">
]>
<svg version="1.1"
	 xmlns="http://www.w3.org/2000/svg" xmlns:xlink="http://www.w3.org/1999/xlink" xmlns:a="http://ns.adobe.com/AdobeSVGViewerExtensions/3.0/"
	 x="0px" y="0px" width="21px" height="17px" viewBox="0 0 21 17" overflow="visible" enable-background="new 0 0 21 17"
	 xml:space="preserve">
<defs>
</defs>
<g>
	<defs>
		<rect id="SVGID_1_" width="21" height="17"/>
	</defs>
	<clipPath id="SVGID_2_">
		<use xlink:href="#SVGID_1_"  overflow="visible"/>
	</clipPath>
	<path clip-path="url(#SVGID_2_)" d="M21,2.013c-0.772,0.341-1.603,0.572-2.475,0.676c0.89-0.531,1.573-1.373,1.895-2.375
		c-0.833,0.492-1.755,0.849-2.736,1.042C16.898,0.521,15.778,0,14.539,0C12.16,0,10.23,1.921,10.23,4.292
		c0,0.336,0.038,0.664,0.112,0.978c-3.581-0.179-6.755-1.888-8.88-4.484C1.091,1.419,0.879,2.156,0.879,2.943
		c0,1.488,0.76,2.802,1.917,3.572C2.089,6.493,1.425,6.3,0.844,5.979c0,0.018,0,0.036,0,0.054c0,2.079,1.485,3.814,3.456,4.208
		c-0.362,0.099-0.742,0.151-1.135,0.151c-0.278,0-0.547-0.027-0.811-0.077c0.549,1.705,2.14,2.945,4.025,2.98
		c-1.475,1.151-3.333,1.837-5.351,1.837c-0.348,0-0.691-0.021-1.028-0.061C1.907,16.289,4.171,17,6.604,17
		c7.925,0,12.258-6.54,12.258-12.211c0-0.186-0.004-0.371-0.013-0.555C19.692,3.629,20.422,2.873,21,2.013"/>
</g>
</svg>
