<svg xmlns="http://www.w3.org/2000/svg" viewBox="0 0 425.2 81.63"><title>アセット 1</title><g id="レイヤー_2" data-name="レイヤー 2"><g id="logo"><polygon points="46.35 53.52 61.8 26.77 46.35 0 30.9 26.76 46.35 53.52 46.35 53.52" style="fill:#e31f26"/><polygon points="46.35 53.52 61.8 80.28 92.7 80.28 77.25 53.52 46.35 53.52 46.35 53.52" style="fill:#e31f26"/><polygon points="46.35 53.52 15.45 53.52 0 80.28 30.91 80.28 46.35 53.52 46.35 53.52" style="fill:#e31f26"/><path d="M341.64,31.65H314V28h30.4V21H314V18.25c9.62-.3,18.72-.83,28.6-1.79l-1.09-7.35c-22.34,2.07-42.27,2.5-65.79,2.5l1,7c10.14,0,19,0,27.17-.14V21h-30.4V28h30.4v3.7H276.15V58.2h27.69v3.32H276.15v6.64h27.69v4.22h-30.4v7.9h70.91v-7.9H314V68.16h27.69V61.52H314V58.2h27.69Zm-56.41,6.1h18.61v4.33H285.23Zm0,14.34V47.61h18.61v4.49Zm47.33,0H314V47.61h18.61Zm0-14.34v4.33H314V37.75Z"/><polygon points="202.12 23.82 211.81 23.82 211.81 19.99 235.79 19.99 235.79 23.82 245.48 23.82 245.48 19.99 259.26 19.99 259.26 13.32 245.48 13.32 245.48 9.37 235.79 9.37 235.79 13.32 211.81 13.32 211.81 9.37 202.12 9.37 202.12 13.32 188.35 13.32 188.35 19.99 202.12 19.99 202.12 23.82"/><path d="M261.05,73.64A125.74,125.74,0,0,1,234.69,69a56.56,56.56,0,0,0,13.17-12.39h11.4l1.56-8.27H243.58c-1.62,0-2.15-.77-2.15-2.3V44.34h17.83V37h-30.4V32.89h28.71V26.33H228.86V22.06H218.74v4.28H190v6.55h28.71V37h-30.4v7.32h12c-3,2.81-8.31,5.5-14.07,6.86l3.29,6.1c9.67-2.52,18.53-7.1,23.11-13h18.18v4.41a3.53,3.53,0,0,0,1.28,2.91H223.4q1.35-1.42,2.65-3l-8.56-3c-6.82,7.69-18,13.94-29.5,17.53l3.14,6.11a80.58,80.58,0,0,0,15.42-5.49,52.56,52.56,0,0,0,8.07,5.56c-7.74,2.93-17.06,4.65-28.25,4.72l3.32,7.2c14.26-.28,25.94-2.77,35.45-7a124,124,0,0,0,33.5,7.32ZM213.6,59.83q1-.66,2-1.37h16.81a50.75,50.75,0,0,1-8.88,6.68A51.87,51.87,0,0,1,213.6,59.83Z"/><rect x="106.08" y="70.68" width="70.92" height="9.6"/><rect x="110.47" y="39.35" width="62.02" height="8.8"/><rect x="107.49" y="13.14" width="67.98" height="8.62"/><polygon points="395.06 71.24 395.06 22.3 422.46 22.3 422.46 13.77 357.03 13.77 357.03 22.3 384.43 22.3 384.43 71.24 354.29 71.24 354.29 80.28 425.2 80.28 425.2 71.24 395.06 71.24"/></g></g></svg>